<mxfile host="app.diagrams.net" agent="Mozilla/5.0 (Windows NT 10.0; Win64; x64) AppleWebKit/537.36 (KHTML, like Gecko) Chrome/129.0.0.0 Safari/537.36" version="24.7.16">
  <diagram name="Seite-1" id="_VfmSjKEUOhZlTq8ivrX">
    <mxGraphModel dx="1147" dy="618" grid="1" gridSize="10" guides="1" tooltips="1" connect="1" arrows="1" fold="1" page="1" pageScale="1" pageWidth="827" pageHeight="1169" math="0" shadow="0">
      <root>
        <mxCell id="0" />
        <mxCell id="1" parent="0" />
        <mxCell id="_NJ-RH2ML0141oone5N4-33" value="&amp;lt;&amp;lt;store settings&amp;gt;&amp;gt;" style="html=1;verticalAlign=bottom;labelBackgroundColor=none;endArrow=open;endFill=0;rounded=0;exitX=1;exitY=0.5;exitDx=0;exitDy=0;entryX=0;entryY=0.3333333333333333;entryDx=0;entryDy=0;strokeColor=#66B2FF;fontColor=#0689d3;entryPerimeter=0;startArrow=open;startFill=0;" edge="1" parent="1" source="_NJ-RH2ML0141oone5N4-11" target="_NJ-RH2ML0141oone5N4-31">
          <mxGeometry x="-0.7705" y="19" width="160" relative="1" as="geometry">
            <mxPoint x="580" y="330" as="sourcePoint" />
            <mxPoint x="740" y="330" as="targetPoint" />
            <mxPoint as="offset" />
          </mxGeometry>
        </mxCell>
        <mxCell id="_NJ-RH2ML0141oone5N4-1" value="Residents" style="shape=umlActor;verticalLabelPosition=bottom;verticalAlign=top;html=1;outlineConnect=0;" vertex="1" parent="1">
          <mxGeometry x="130" y="300" width="30" height="60" as="geometry" />
        </mxCell>
        <mxCell id="_NJ-RH2ML0141oone5N4-2" value="Start routine" style="shape=ellipse;container=1;horizontal=1;horizontalStack=0;resizeParent=1;resizeParentMax=0;resizeLast=0;html=1;dashed=0;collapsible=0;" vertex="1" parent="1">
          <mxGeometry x="360" y="280" width="120" height="80" as="geometry" />
        </mxCell>
        <mxCell id="_NJ-RH2ML0141oone5N4-8" value="Configure temperature&lt;div&gt;(water)&lt;/div&gt;" style="ellipse;whiteSpace=wrap;html=1;" vertex="1" parent="1">
          <mxGeometry x="360" y="400" width="120" height="80" as="geometry" />
        </mxCell>
        <mxCell id="_NJ-RH2ML0141oone5N4-9" value="&amp;lt;&amp;lt;wake up&amp;gt;&amp;gt;" style="html=1;verticalAlign=bottom;labelBackgroundColor=none;endArrow=open;endFill=0;dashed=1;rounded=0;entryX=1;entryY=0.3333333333333333;entryDx=0;entryDy=0;entryPerimeter=0;exitX=0;exitY=0.5;exitDx=0;exitDy=0;strokeColor=#994C00;fontColor=#db9958;" edge="1" parent="1" source="_NJ-RH2ML0141oone5N4-2" target="_NJ-RH2ML0141oone5N4-1">
          <mxGeometry width="160" relative="1" as="geometry">
            <mxPoint x="324" y="310" as="sourcePoint" />
            <mxPoint x="170" y="310" as="targetPoint" />
          </mxGeometry>
        </mxCell>
        <mxCell id="_NJ-RH2ML0141oone5N4-10" value="Configure temperature&lt;div&gt;(heater)&lt;/div&gt;" style="ellipse;whiteSpace=wrap;html=1;" vertex="1" parent="1">
          <mxGeometry x="360" y="520" width="120" height="80" as="geometry" />
        </mxCell>
        <mxCell id="_NJ-RH2ML0141oone5N4-11" value="Set time&lt;div&gt;or timer&lt;/div&gt;" style="ellipse;whiteSpace=wrap;html=1;" vertex="1" parent="1">
          <mxGeometry x="360" y="40" width="120" height="80" as="geometry" />
        </mxCell>
        <mxCell id="_NJ-RH2ML0141oone5N4-12" value="Make coffee" style="ellipse;whiteSpace=wrap;html=1;" vertex="1" parent="1">
          <mxGeometry x="760" y="160" width="120" height="80" as="geometry" />
        </mxCell>
        <mxCell id="_NJ-RH2ML0141oone5N4-15" value="Choose type&lt;div&gt;of coffee&lt;/div&gt;" style="ellipse;whiteSpace=wrap;html=1;" vertex="1" parent="1">
          <mxGeometry x="360" y="160" width="120" height="80" as="geometry" />
        </mxCell>
        <mxCell id="_NJ-RH2ML0141oone5N4-16" value="&amp;lt;&amp;lt;extends&amp;gt;&amp;gt;" style="html=1;verticalAlign=bottom;labelBackgroundColor=none;endArrow=none;endFill=0;dashed=1;rounded=0;exitX=1;exitY=0.5;exitDx=0;exitDy=0;entryX=0;entryY=1;entryDx=0;entryDy=0;strokeColor=#66FF66;fontColor=#10ab10;startArrow=open;startFill=0;" edge="1" parent="1" source="_NJ-RH2ML0141oone5N4-2" target="_NJ-RH2ML0141oone5N4-12">
          <mxGeometry x="0.056" y="13" width="160" relative="1" as="geometry">
            <mxPoint x="540" y="319.6" as="sourcePoint" />
            <mxPoint x="700" y="319.6" as="targetPoint" />
            <mxPoint as="offset" />
          </mxGeometry>
        </mxCell>
        <mxCell id="_NJ-RH2ML0141oone5N4-17" value="&amp;lt;&amp;lt;extends&amp;gt;&amp;gt;" style="html=1;verticalAlign=bottom;labelBackgroundColor=none;endArrow=none;endFill=0;dashed=1;rounded=0;exitX=1;exitY=0.5;exitDx=0;exitDy=0;entryX=0;entryY=0.5;entryDx=0;entryDy=0;strokeColor=#66FF66;fontColor=#10ab10;startArrow=open;startFill=0;" edge="1" parent="1" source="_NJ-RH2ML0141oone5N4-2" target="_NJ-RH2ML0141oone5N4-13">
          <mxGeometry x="0.0833" width="160" relative="1" as="geometry">
            <mxPoint x="530" y="330" as="sourcePoint" />
            <mxPoint x="788" y="198" as="targetPoint" />
            <mxPoint as="offset" />
          </mxGeometry>
        </mxCell>
        <mxCell id="_NJ-RH2ML0141oone5N4-18" value="&amp;lt;&amp;lt;extends&amp;gt;&amp;gt;" style="html=1;verticalAlign=bottom;labelBackgroundColor=none;endArrow=none;endFill=0;dashed=1;rounded=0;exitX=1;exitY=0.5;exitDx=0;exitDy=0;entryX=0;entryY=0;entryDx=0;entryDy=0;strokeColor=#66FF66;fontColor=#10ab10;startArrow=open;startFill=0;" edge="1" parent="1" source="_NJ-RH2ML0141oone5N4-2" target="_NJ-RH2ML0141oone5N4-14">
          <mxGeometry x="0.1218" y="-31" width="160" relative="1" as="geometry">
            <mxPoint x="540" y="340" as="sourcePoint" />
            <mxPoint x="798" y="208" as="targetPoint" />
            <mxPoint as="offset" />
          </mxGeometry>
        </mxCell>
        <mxCell id="_NJ-RH2ML0141oone5N4-19" value="&amp;lt;&amp;lt;configure&amp;gt;&amp;gt;" style="html=1;verticalAlign=bottom;labelBackgroundColor=none;endArrow=open;endFill=0;dashed=1;rounded=0;startArrow=none;startFill=0;exitX=1;exitY=0.3333333333333333;exitDx=0;exitDy=0;exitPerimeter=0;entryX=0;entryY=0.5;entryDx=0;entryDy=0;strokeColor=#994C00;fontColor=#db9958;" edge="1" parent="1" source="_NJ-RH2ML0141oone5N4-1" target="_NJ-RH2ML0141oone5N4-15">
          <mxGeometry x="0.3235" y="-34" width="160" relative="1" as="geometry">
            <mxPoint x="180" y="310" as="sourcePoint" />
            <mxPoint x="360" y="140" as="targetPoint" />
            <mxPoint as="offset" />
          </mxGeometry>
        </mxCell>
        <mxCell id="_NJ-RH2ML0141oone5N4-21" value="&amp;lt;&amp;lt;configure&amp;gt;&amp;gt;" style="html=1;verticalAlign=bottom;labelBackgroundColor=none;endArrow=open;endFill=0;dashed=1;rounded=0;startArrow=none;startFill=0;exitX=1;exitY=0.3333333333333333;exitDx=0;exitDy=0;exitPerimeter=0;entryX=0;entryY=1;entryDx=0;entryDy=0;strokeColor=#994C00;fontColor=#db9958;" edge="1" parent="1" source="_NJ-RH2ML0141oone5N4-1" target="_NJ-RH2ML0141oone5N4-11">
          <mxGeometry x="-0.1538" y="33" width="160" relative="1" as="geometry">
            <mxPoint x="170" y="330" as="sourcePoint" />
            <mxPoint x="410" y="210" as="targetPoint" />
            <mxPoint as="offset" />
          </mxGeometry>
        </mxCell>
        <mxCell id="_NJ-RH2ML0141oone5N4-22" value="&amp;lt;&amp;lt;configure&amp;gt;&amp;gt;" style="html=1;verticalAlign=bottom;labelBackgroundColor=none;endArrow=open;endFill=0;dashed=1;rounded=0;startArrow=none;startFill=0;exitX=1;exitY=0.3333333333333333;exitDx=0;exitDy=0;exitPerimeter=0;entryX=0;entryY=0;entryDx=0;entryDy=0;strokeColor=#994C00;fontColor=#db9958;" edge="1" parent="1" source="_NJ-RH2ML0141oone5N4-1" target="_NJ-RH2ML0141oone5N4-10">
          <mxGeometry x="-0.0833" y="-42" width="160" relative="1" as="geometry">
            <mxPoint x="180" y="340" as="sourcePoint" />
            <mxPoint x="420" y="220" as="targetPoint" />
            <mxPoint y="1" as="offset" />
          </mxGeometry>
        </mxCell>
        <mxCell id="_NJ-RH2ML0141oone5N4-23" value="&amp;lt;&amp;lt;configure&amp;gt;&amp;gt;" style="html=1;verticalAlign=bottom;labelBackgroundColor=none;endArrow=open;endFill=0;dashed=1;rounded=0;startArrow=none;startFill=0;exitX=1;exitY=0.3333333333333333;exitDx=0;exitDy=0;exitPerimeter=0;entryX=0;entryY=0.5;entryDx=0;entryDy=0;strokeColor=#994C00;fontColor=#db9958;" edge="1" parent="1" source="_NJ-RH2ML0141oone5N4-1" target="_NJ-RH2ML0141oone5N4-8">
          <mxGeometry x="0.4118" y="17" width="160" relative="1" as="geometry">
            <mxPoint x="190" y="350" as="sourcePoint" />
            <mxPoint x="430" y="230" as="targetPoint" />
            <mxPoint as="offset" />
          </mxGeometry>
        </mxCell>
        <mxCell id="_NJ-RH2ML0141oone5N4-28" value="&amp;lt;&amp;lt;extends&amp;gt;&amp;gt;" style="html=1;verticalAlign=bottom;labelBackgroundColor=none;endArrow=none;endFill=0;dashed=1;rounded=0;entryX=0;entryY=1;entryDx=0;entryDy=0;strokeColor=#66FF66;fontColor=#10ab10;startArrow=open;startFill=0;exitX=1;exitY=0.5;exitDx=0;exitDy=0;" edge="1" parent="1" source="_NJ-RH2ML0141oone5N4-2" target="_NJ-RH2ML0141oone5N4-26">
          <mxGeometry x="-0.009" y="23" width="160" relative="1" as="geometry">
            <mxPoint x="520" y="320" as="sourcePoint" />
            <mxPoint x="720" y="160" as="targetPoint" />
            <mxPoint as="offset" />
          </mxGeometry>
        </mxCell>
        <mxCell id="_NJ-RH2ML0141oone5N4-29" value="&amp;lt;&amp;lt;extends&amp;gt;&amp;gt;" style="html=1;verticalAlign=bottom;labelBackgroundColor=none;endArrow=none;endFill=0;dashed=1;rounded=0;entryX=0;entryY=0;entryDx=0;entryDy=0;exitX=1;exitY=0.5;exitDx=0;exitDy=0;strokeColor=#66FF66;fontColor=#10ab10;startArrow=open;startFill=0;" edge="1" parent="1" source="_NJ-RH2ML0141oone5N4-2" target="_NJ-RH2ML0141oone5N4-27">
          <mxGeometry x="0.102" y="-36" width="160" relative="1" as="geometry">
            <mxPoint x="530" y="330" as="sourcePoint" />
            <mxPoint x="708" y="118" as="targetPoint" />
            <mxPoint as="offset" />
          </mxGeometry>
        </mxCell>
        <mxCell id="_NJ-RH2ML0141oone5N4-31" value="Server (Raspberry Pi)" style="shape=umlActor;verticalLabelPosition=bottom;verticalAlign=top;html=1;outlineConnect=0;" vertex="1" parent="1">
          <mxGeometry x="1120" y="300" width="30" height="60" as="geometry" />
        </mxCell>
        <mxCell id="_NJ-RH2ML0141oone5N4-41" value="&amp;lt;&amp;lt;store settings&amp;gt;&amp;gt;" style="html=1;verticalAlign=bottom;labelBackgroundColor=none;endArrow=open;endFill=0;rounded=0;exitX=1;exitY=0.5;exitDx=0;exitDy=0;entryX=0;entryY=0.3333333333333333;entryDx=0;entryDy=0;strokeColor=#66B2FF;fontColor=#0689d3;entryPerimeter=0;startArrow=open;startFill=0;" edge="1" parent="1" source="_NJ-RH2ML0141oone5N4-15" target="_NJ-RH2ML0141oone5N4-31">
          <mxGeometry x="-0.8141" y="-29" width="160" relative="1" as="geometry">
            <mxPoint x="450" y="90" as="sourcePoint" />
            <mxPoint x="1080" y="320" as="targetPoint" />
            <mxPoint as="offset" />
          </mxGeometry>
        </mxCell>
        <mxCell id="_NJ-RH2ML0141oone5N4-42" value="&amp;lt;&amp;lt;store settings&amp;gt;&amp;gt;" style="html=1;verticalAlign=bottom;labelBackgroundColor=none;endArrow=open;endFill=0;rounded=0;exitX=1;exitY=0.5;exitDx=0;exitDy=0;entryX=0;entryY=0.3333333333333333;entryDx=0;entryDy=0;strokeColor=#66B2FF;fontColor=#0689d3;entryPerimeter=0;startArrow=open;startFill=0;" edge="1" parent="1" source="_NJ-RH2ML0141oone5N4-8" target="_NJ-RH2ML0141oone5N4-31">
          <mxGeometry x="-0.8269" y="10" width="160" relative="1" as="geometry">
            <mxPoint x="490" y="210" as="sourcePoint" />
            <mxPoint x="1090" y="330" as="targetPoint" />
            <mxPoint as="offset" />
          </mxGeometry>
        </mxCell>
        <mxCell id="_NJ-RH2ML0141oone5N4-43" value="&amp;lt;&amp;lt;store settings&amp;gt;&amp;gt;" style="html=1;verticalAlign=bottom;labelBackgroundColor=none;endArrow=open;endFill=0;rounded=0;exitX=1;exitY=0.5;exitDx=0;exitDy=0;entryX=0;entryY=0.3333333333333333;entryDx=0;entryDy=0;strokeColor=#66B2FF;fontColor=#0689d3;entryPerimeter=0;startArrow=open;startFill=0;" edge="1" parent="1" source="_NJ-RH2ML0141oone5N4-10" target="_NJ-RH2ML0141oone5N4-31">
          <mxGeometry x="-0.7911" y="-37" width="160" relative="1" as="geometry">
            <mxPoint x="500" y="220" as="sourcePoint" />
            <mxPoint x="1100" y="340" as="targetPoint" />
            <mxPoint as="offset" />
          </mxGeometry>
        </mxCell>
        <mxCell id="_NJ-RH2ML0141oone5N4-48" value="&amp;lt;&amp;lt;check settings&amp;gt;&amp;gt;" style="html=1;verticalAlign=bottom;labelBackgroundColor=none;endArrow=open;endFill=0;rounded=0;exitX=0;exitY=0.3333333333333333;exitDx=0;exitDy=0;entryX=1;entryY=0.5;entryDx=0;entryDy=0;strokeColor=#66B2FF;fontColor=#0689d3;startArrow=open;startFill=0;exitPerimeter=0;" edge="1" parent="1" source="_NJ-RH2ML0141oone5N4-31" target="_NJ-RH2ML0141oone5N4-26">
          <mxGeometry x="0.12" y="-32" width="160" relative="1" as="geometry">
            <mxPoint x="1318.5735931288073" y="221.7157287525381" as="sourcePoint" />
            <mxPoint x="900" y="130" as="targetPoint" />
            <mxPoint as="offset" />
          </mxGeometry>
        </mxCell>
        <mxCell id="_NJ-RH2ML0141oone5N4-51" value="&amp;lt;&amp;lt;check settings&amp;gt;&amp;gt;" style="html=1;verticalAlign=bottom;labelBackgroundColor=none;endArrow=open;endFill=0;rounded=0;exitX=0;exitY=0.3333333333333333;exitDx=0;exitDy=0;entryX=1;entryY=0.5;entryDx=0;entryDy=0;strokeColor=#66B2FF;fontColor=#0689d3;startArrow=open;startFill=0;exitPerimeter=0;" edge="1" parent="1" source="_NJ-RH2ML0141oone5N4-31" target="_NJ-RH2ML0141oone5N4-12">
          <mxGeometry x="0.5667" y="-18" width="160" relative="1" as="geometry">
            <mxPoint x="1269" y="302" as="sourcePoint" />
            <mxPoint x="810" y="90" as="targetPoint" />
            <mxPoint as="offset" />
          </mxGeometry>
        </mxCell>
        <mxCell id="_NJ-RH2ML0141oone5N4-52" value="&amp;lt;&amp;lt;check settings&amp;gt;&amp;gt;" style="html=1;verticalAlign=bottom;labelBackgroundColor=none;endArrow=open;endFill=0;rounded=0;exitX=0;exitY=0.3333333333333333;exitDx=0;exitDy=0;entryX=1;entryY=0.5;entryDx=0;entryDy=0;strokeColor=#66B2FF;fontColor=#0689d3;startArrow=open;startFill=0;exitPerimeter=0;" edge="1" parent="1" source="_NJ-RH2ML0141oone5N4-31" target="_NJ-RH2ML0141oone5N4-14">
          <mxGeometry x="0.6333" y="36" width="160" relative="1" as="geometry">
            <mxPoint x="1269" y="302" as="sourcePoint" />
            <mxPoint x="850" y="210" as="targetPoint" />
            <mxPoint as="offset" />
          </mxGeometry>
        </mxCell>
        <mxCell id="_NJ-RH2ML0141oone5N4-53" value="&amp;lt;&amp;lt;check settings&amp;gt;&amp;gt;" style="html=1;verticalAlign=bottom;labelBackgroundColor=none;endArrow=open;endFill=0;rounded=0;exitX=0;exitY=0.3333333333333333;exitDx=0;exitDy=0;entryX=1;entryY=0.5;entryDx=0;entryDy=0;strokeColor=#66B2FF;fontColor=#0689d3;startArrow=open;startFill=0;exitPerimeter=0;" edge="1" parent="1" source="_NJ-RH2ML0141oone5N4-31" target="_NJ-RH2ML0141oone5N4-27">
          <mxGeometry x="0.18" y="48" width="160" relative="1" as="geometry">
            <mxPoint x="1279" y="312" as="sourcePoint" />
            <mxPoint x="860" y="220" as="targetPoint" />
            <mxPoint as="offset" />
          </mxGeometry>
        </mxCell>
        <mxCell id="_NJ-RH2ML0141oone5N4-13" value="Open windows" style="ellipse;whiteSpace=wrap;html=1;" vertex="1" parent="1">
          <mxGeometry x="760" y="280" width="120" height="80" as="geometry" />
        </mxCell>
        <mxCell id="_NJ-RH2ML0141oone5N4-14" value="Activate / Deactive heater" style="ellipse;whiteSpace=wrap;html=1;" vertex="1" parent="1">
          <mxGeometry x="760" y="400" width="120" height="80" as="geometry" />
        </mxCell>
        <mxCell id="_NJ-RH2ML0141oone5N4-27" value="Turn on lights" style="ellipse;whiteSpace=wrap;html=1;" vertex="1" parent="1">
          <mxGeometry x="760" y="520" width="120" height="80" as="geometry" />
        </mxCell>
        <mxCell id="_NJ-RH2ML0141oone5N4-26" value="Start boiler" style="ellipse;whiteSpace=wrap;html=1;" vertex="1" parent="1">
          <mxGeometry x="760" y="40" width="120" height="80" as="geometry" />
        </mxCell>
      </root>
    </mxGraphModel>
  </diagram>
</mxfile>
